<svg xmlns="http://www.w3.org/2000/svg" width="544" height="143.454" viewBox="0 0 544 143.454">
  <g id="logo" transform="translate(260 1074)">
    <g id="finder" transform="translate(-58.43 -1074)">
      <path id="Path_27" data-name="Path 27" d="M85.472,74.978l-37.1-37.1A62.232,62.232,0,0,1,37.878,48.373l37.1,37.1A7.421,7.421,0,0,0,85.472,74.978Z" transform="translate(55.806 55.807)" fill="#8a8792"/>
      <ellipse id="Ellipse_6" data-name="Ellipse 6" cx="61.5" cy="62" rx="61.5" ry="62" transform="translate(0.43)" fill="#8a8792"/>
      <circle id="Ellipse_7" data-name="Ellipse 7" cx="47" cy="47" r="47" transform="translate(14.43 15)" fill="#f1f1f1"/>
      <g id="gnome" transform="translate(34.463 26.789)">
        <g id="Group_6" data-name="Group 6" transform="translate(6.514 27.48)">
          <path id="Path_28" data-name="Path 28" d="M319.462,207.917h-6.576a3.535,3.535,0,0,1-3.535-3.535h0a3.535,3.535,0,0,1,3.535-3.535h6.576A3.535,3.535,0,0,1,323,204.382h0A3.535,3.535,0,0,1,319.462,207.917Z" transform="translate(-281.107 -200.847)" fill="#ffd2c0"/>
          <path id="Path_29" data-name="Path 29" d="M113.03,207.917h-6.576a3.535,3.535,0,0,1-3.535-3.535h0a3.535,3.535,0,0,1,3.535-3.535h6.576a3.535,3.535,0,0,1,3.535,3.535h0A3.535,3.535,0,0,1,113.03,207.917Z" transform="translate(-102.919 -200.847)" fill="#ffd2c0"/>
        </g>
        <path id="Path_30" data-name="Path 30" d="M166.409,14.875A26.5,26.5,0,0,0,159.572,3c-3.911-3.626-6.5-3.12-7.427-2.734a2.5,2.5,0,0,0-1.637,2.177,2.409,2.409,0,0,0,1.437,2.229,1.921,1.921,0,0,1,.5.327c-.143.229-.852,1.027-4.189,2.349a22.109,22.109,0,0,0-10.857,9.737A25.89,25.89,0,0,0,133.887,29a1.028,1.028,0,0,0,1.028,1.049h31.329a1.028,1.028,0,0,0,1.006-.816A30.041,30.041,0,0,0,166.409,14.875Z" transform="translate(-123.136 0)" fill="rgba(230,65,57,0.7)"/>
        <path id="Path_31" data-name="Path 31" d="M281.942,14.874A26.5,26.5,0,0,0,275.1,3c-3.838-3.558-6.4-3.137-7.372-2.756A9.75,9.75,0,0,1,271.51,3a27.729,27.729,0,0,1,5.88,11.872,34.761,34.761,0,0,1,.723,14.36.928.928,0,0,1-.865.816h4.528a1.028,1.028,0,0,0,1.006-.816A30.041,30.041,0,0,0,281.942,14.874Z" transform="translate(-238.668 0)" fill="#e24b4b"/>
        <path id="Path_32" data-name="Path 32" d="M82.769,282.286a27.49,27.49,0,0,0-27.458,27.459v2.943a1.028,1.028,0,0,0,1.028,1.028H109.2a1.028,1.028,0,0,0,1.028-1.028v-2.943A27.49,27.49,0,0,0,82.769,282.286Z" transform="translate(-55.311 -243.663)" fill="rgba(14,83,156,0.69)"/>
        <path id="Path_33" data-name="Path 33" d="M256,282.286c12.448,0,22.575,12.318,22.575,27.459v2.943a.95.95,0,0,1-.845,1.028h4.7a1.028,1.028,0,0,0,1.028-1.028v-2.943A27.49,27.49,0,0,0,256,282.286Z" transform="translate(-228.541 -243.663)" fill="rgba(42,63,85,0.45)"/>
        <path id="Path_34" data-name="Path 34" d="M182.12,192.1c0,.072,0,.145,0,.216s-.007.144-.013.215-.01.121-.017.18-.017.143-.029.214c0,.034-.01.067-.016.1-.016.1-.036.192-.058.286-.007.034-.015.066-.024.1-.013.051-.026.1-.041.154-.019.066-.038.131-.06.2v0c-.017.052-.035.1-.054.155l-.007.019c-.01.029-.021.058-.033.086-.016.043-.034.086-.051.129s-.042.1-.064.147c0,0,0,0,0,0-.013.028-.024.055-.038.081-.024.054-.051.106-.078.158s-.055.1-.084.157-.066.115-.1.172c0,0,0,0,0,0-.036.057-.072.114-.109.171a4.893,4.893,0,0,1-.363.486c-.085.1-.175.2-.269.3l0,0c-.045.047-.091.092-.137.136l0,0c-.049.047-.1.092-.149.136s-.1.088-.154.13-.106.085-.159.126-.108.08-.163.119-.112.077-.169.113-.114.072-.173.107-.116.067-.177.1-.12.063-.18.093-.123.059-.185.087c-.124.056-.251.107-.382.152a5.327,5.327,0,0,1-1.794.31H159.635a5.327,5.327,0,0,1-1.794-.31c-.13-.045-.257-.1-.382-.152q-.093-.042-.185-.087c-.06-.03-.121-.06-.18-.093s-.119-.066-.177-.1-.116-.07-.173-.107-.113-.074-.169-.113-.109-.078-.163-.119-.107-.083-.159-.126-.1-.086-.154-.13-.1-.09-.149-.136l0,0-.137-.136,0,0c-.094-.1-.184-.2-.269-.3a4.873,4.873,0,0,1-.363-.486c-.037-.057-.073-.114-.109-.171,0,0,0,0,0,0-.034-.057-.067-.114-.1-.172s-.057-.1-.084-.157-.053-.1-.078-.158c-.014-.027-.026-.053-.038-.081,0,0,0,0,0,0-.022-.049-.043-.1-.064-.147s-.035-.086-.051-.129c-.012-.028-.022-.057-.033-.086l-.007-.019c-.019-.051-.036-.1-.054-.155v0c-.022-.064-.042-.129-.06-.2-.015-.051-.028-.1-.041-.154-.009-.034-.017-.066-.024-.1-.022-.094-.042-.19-.058-.286-.006-.033-.012-.066-.016-.1-.012-.071-.021-.142-.029-.214s-.013-.12-.017-.18-.01-.143-.013-.215,0-.144,0-.216a5.351,5.351,0,0,1,3.743-5.1v-2.335a46.415,46.415,0,0,1,20.347,0v2.335A5.351,5.351,0,0,1,182.12,192.1Z" transform="translate(-140.745 -158.419)" fill="#ffd2c0"/>
        <g id="Group_7" data-name="Group 7" transform="translate(20.737 28.89)">
          <path id="Path_35" data-name="Path 35" d="M291.135,213.21a.983.983,0,0,1-.2-.021.933.933,0,0,1-.192-.059.956.956,0,0,1-.178-.093,1.083,1.083,0,0,1-.156-.129,1.036,1.036,0,0,1-.3-.727,1.006,1.006,0,0,1,.019-.2,1.058,1.058,0,0,1,.059-.192,1.044,1.044,0,0,1,.095-.177.938.938,0,0,1,.128-.156,1.088,1.088,0,0,1,.156-.129,1.045,1.045,0,0,1,.178-.095,1.033,1.033,0,0,1,.192-.058.993.993,0,0,1,.4,0,1.023,1.023,0,0,1,.192.058,1.056,1.056,0,0,1,.178.095,1.075,1.075,0,0,1,.156.129,1.03,1.03,0,0,1,0,1.453,1.084,1.084,0,0,1-.156.129,1.1,1.1,0,0,1-.37.152A1,1,0,0,1,291.135,213.21Z" transform="translate(-278.72 -211.154)" fill="#434259"/>
          <path id="Path_36" data-name="Path 36" d="M207.9,213.21a1,1,0,0,1-.2-.021.933.933,0,0,1-.192-.059.964.964,0,0,1-.178-.095.987.987,0,0,1-.156-.128,1.036,1.036,0,0,1-.3-.727,1,1,0,0,1,.019-.2,1.028,1.028,0,0,1,.059-.192,1.043,1.043,0,0,1,.095-.177.939.939,0,0,1,.128-.156,1.086,1.086,0,0,1,.156-.129,1.047,1.047,0,0,1,.178-.095,1.033,1.033,0,0,1,.192-.058.993.993,0,0,1,.4,0,1.024,1.024,0,0,1,.192.058,1.058,1.058,0,0,1,.178.095,1.079,1.079,0,0,1,.156.129.881.881,0,0,1,.128.156,1.042,1.042,0,0,1,.154.369,1.007,1.007,0,0,1,.021.2,1.033,1.033,0,0,1-.3.727,1,1,0,0,1-.156.128.956.956,0,0,1-.178.095.943.943,0,0,1-.192.059A.993.993,0,0,1,207.9,213.21Z" transform="translate(-206.872 -211.154)" fill="#434259"/>
        </g>
        <path id="Path_37" data-name="Path 37" d="M139.28,215.974c-21.222,0-20.6-13-15.621-18.615v-3.881a37.165,37.165,0,0,1,5.448-1.7v2.335a5.351,5.351,0,0,0-3.743,5.1c0,.072,0,.145,0,.216s.007.144.013.215.01.121.017.18.017.143.029.214c0,.034.01.066.016.1.016.1.036.192.058.286.007.034.015.067.024.1.013.051.026.1.041.154.019.066.038.131.06.2v0c.017.052.035.1.054.155l.007.019c.01.029.021.057.033.086s.034.086.051.129.042.1.064.147c0,0,0,0,0,0l.038.081c.024.054.051.106.078.158s.055.1.084.157.066.115.1.172c0,0,0,0,0,0,.036.057.072.114.109.171a5.284,5.284,0,0,0,.363.486c.086.1.176.2.269.3l0,0,.137.136,0,0c.049.047.1.092.149.136s.1.088.154.13.106.085.159.126.108.08.163.119.112.077.169.113.114.072.173.107.116.067.177.1.12.063.18.093.123.059.185.087c.125.056.253.106.382.152a6.093,6.093,0,0,0,.7.042H131.3a8.218,8.218,0,0,1,15.95,0h1.686a6.032,6.032,0,0,0,.7-.042c.129-.047.257-.1.382-.152q.093-.042.185-.087c.06-.03.121-.06.18-.093s.119-.066.177-.1.116-.07.174-.107.113-.074.169-.113.109-.078.163-.119.107-.083.159-.126.1-.086.154-.13.1-.09.149-.136l0,0c.047-.044.092-.09.137-.136l0,0q.14-.145.269-.3a5.26,5.26,0,0,0,.363-.486c.037-.057.073-.114.109-.171,0,0,0,0,0,0,.034-.057.067-.114.1-.172s.057-.1.084-.157.054-.1.078-.158l.038-.081s0,0,0,0c.022-.049.043-.1.064-.147s.035-.086.051-.129.022-.057.033-.086l.007-.019c.019-.051.036-.1.054-.155v0c.022-.064.042-.129.06-.2.015-.051.028-.1.041-.154.009-.033.017-.066.024-.1.022-.094.042-.19.058-.286.006-.034.012-.066.016-.1.012-.071.021-.142.029-.214s.013-.12.017-.18.01-.143.013-.215,0-.144,0-.216a5.351,5.351,0,0,0-3.743-5.1V191.78a37.094,37.094,0,0,1,5.582,1.751l.012,3.826.06.241C159.893,203.334,160.205,215.974,139.28,215.974Z" transform="translate(-111.822 -165.54)" fill="#e1eef7"/>
        <g id="Group_8" data-name="Group 8" transform="translate(25.406 53.008)">
          <circle id="Ellipse_8" data-name="Ellipse 8" cx="2.052" cy="2.052" r="2.052" transform="translate(0)" fill="#f7e3aa"/>
          <circle id="Ellipse_9" data-name="Ellipse 9" cx="2.052" cy="2.052" r="2.052" transform="translate(0 7.67)" fill="#f7e3aa"/>
        </g>
      </g>
    </g>
    <text id="_Finder" data-name=" Finder" transform="translate(164 -963)" fill="rgba(83,83,83,0.42)" font-size="57" font-family="PTMono-Bold, PT Mono" font-weight="700"><tspan x="-119.7" y="0" xml:space="preserve"> FINDER</tspan></text>
    <text id="Gnomes" transform="translate(-164 -1020)" fill="rgba(83,83,83,0.42)" font-size="53" font-family="PTMono-Bold, PT Mono" font-weight="700"><tspan x="-95.4" y="0">GNOMES</tspan></text>
  </g>
</svg>
